ply
format ascii 1.0
comment VCGLIB generated
element vertex 502
property float x
property float y
property float z
element face 1000
property list uchar int vertex_indices
end_header
0.113082 0.489084 0.306062 
0.0699442 0.425248 0.310692 
0.102335 0.548281 0.303077 
0.136414 0.449693 0.274603 
0.155974 0.540155 0.239862 
0.12689 0.582204 0.258399 
0.138028 0.594017 0.210866 
0.139027 0.398349 0.189983 
0.126421 0.339456 0.190498 
0.127014 0.500648 0.130801 
0.123768 0.577818 0.146359 
0.0751092 0.475133 0.317182 
0.153258 0.55762 0.173077 
0.120012 0.604163 0.176896 
0.10821 0.437057 0.143074 
0.0795633 0.355454 0.24292 
0.0971803 0.557028 0.123527 
0.0852678 0.597972 0.268499 
0.0896214 0.619668 0.197335 
0.0998283 0.382349 0.12814 
0.154592 0.469457 0.185573 
0.20016 0.147313 0.195898 
0.268763 0.0673906 0.138365 
0.145495 0.0657318 0.201127 
0.115017 0.162916 0.237142 
0.234044 0.173009 0.184241 
0.171685 -0.0779101 0.193691 
0.208223 0.266975 0.0528108 
0.210302 0.323728 0.139951 
0.255049 0.199797 0.0709458 
0.19436 -0.0693245 0.103531 
0.18968 0.0958722 0.0348876 
0.133512 0.367776 0.141932 
0.15855 -0.304337 0.0254859 
0.122395 -0.321759 0.0253457 
0.0511513 -0.316362 0.000616037 
0.176337 -0.104875 0.0571435 
0.22013 -0.33289 0.134228 
0.184731 -0.338079 0.0361508 
0.0751477 -0.107345 0.233838 
0.0787281 -0.322075 0.0392878 
0.0624553 -0.32944 0.177123 
0.0938111 -0.2436 -0.0127041 
0.161202 0.255664 0.0237267 
0.140436 -0.364529 0.0211971 
0.100669 -0.348728 0.0371108 
0.214317 -0.418953 0.048025 
0.22388 -0.461112 0.104906 
0.180684 -0.461237 0.158298 
0.0982029 -0.27625 0.203965 
0.188409 -0.226161 0.184041 
0.0872988 -0.399208 0.0423598 
0.190867 -0.0962551 0.157835 
0.137451 -0.486514 0.147846 
0.0976607 -0.488669 0.0901467 
0.0916743 -0.479101 0.0512834 
0.209757 -0.411637 0.149859 
0.200996 -0.526282 0.119717 
0.0684495 -0.350473 0.138443 
0.219027 -0.529424 0.0852177 
0.188883 -0.47538 0.00857698 
0.13041 -0.541105 0.00244725 
0.124224 -0.622237 -0.00557702 
0.142936 -0.647299 0.0876176 
0.214243 -0.558442 0.0300932 
0.214957 -0.586558 0.0645911 
0.161993 -0.49449 -0.0057781 
0.106211 -0.559904 0.0397015 
0.18842 -0.597651 0.100862 
0.163964 -0.656743 0.0969134 
0.177995 -0.608846 -0.0166842 
0.164318 -0.636048 -0.0221337 
0.220203 -0.667084 -0.00942076 
0.228918 -0.658789 0.0240546 
0.220013 -0.682172 0.0496833 
0.203439 -0.807822 0.0590643 
0.126324 -0.811951 -0.0111997 
0.166751 -0.792173 -0.057514 
0.234455 -0.758513 -0.0108173 
0.239381 -0.769104 0.0157662 
0.227334 -0.79028 0.0455361 
0.179197 -0.780026 0.0589464 
0.224752 -0.879516 0.00845354 
0.169014 -0.935568 0.0362907 
0.190153 -0.935271 0.038787 
0.13806 -0.898981 -0.00226498 
0.165873 -0.88664 -0.0416504 
0.216915 -0.893818 -0.01919 
0.197743 -0.992807 0.024644 
0.105123 -0.462012 0.123136 
0.124057 -0.639184 0.0254469 
0.149534 -0.739084 0.0375498 
0.13734 -0.726728 0.00938265 
0.147743 -0.961629 0.0152473 
0.086187 -0.321692 0.165162 
0.191826 -0.576601 -0.00145583 
0.123 -0.591882 0.0894614 
0.173113 -0.680341 -0.0394685 
0.206207 -0.729523 -0.0451874 
0.140989 -0.584037 0.107865 
0.0881998 0.0856277 0.22434 
0.226198 -0.391884 0.084609 
0.153242 0.303296 0.16746 
0.257072 0.286603 0.179963 
0.234121 0.300199 0.103507 
0.151458 0.132255 0.0185804 
0.208989 0.0723993 0.0875682 
0.106193 0.275226 0.205951 
0.216991 -0.263423 0.120924 
0.0447936 -0.331397 0.12295 
0.321044 0.107203 0.0783183 
0.0607843 -0.373597 0.0884467 
0.143022 -0.383374 0.180537 
0.166536 -0.703807 0.0656012 
0.139426 -0.826931 0.0255051 
0.22618 0.104934 0.0954814 
0.22663 0.170589 0.151604 
0.305546 0.107449 0.139359 
0.252803 0.14861 0.064454 
0.271158 0.135207 0.16611 
0.197756 0.0680095 0.144659 
0.122261 -0.412303 0.0157772 
0.196585 -0.776338 -0.0556681 
0.221759 -0.756378 -0.036003 
0.190196 -0.8814 -0.041291 
0.20029 -0.272055 0.165561 
0.19205 -0.01457 0.138257 
0.172434 -0.318024 0.188283 
0.16368 -0.26803 0.185368 
0.0645177 -0.325543 0.0681196 
0.106509 -0.288321 0.180985 
0.141252 -0.694183 -0.0111028 
0.148971 -0.888186 -0.0327211 
0.139678 -0.797579 -0.0424705 
0.193229 0.279563 0.186023 
0.219284 0.158693 0.14287 
0.384404 -0.18452 0.0973859 
0.333777 -0.117956 0.095756 
0.336771 -0.159436 0.0288874 
0.292201 -0.0867884 0.057794 
0.374931 -0.0366131 0.0690701 
0.297708 -0.0729971 0.0349188 
0.346052 -0.0447014 0.0206577 
0.273035 0.0209473 0.0492963 
0.297868 -0.0470557 0.0896347 
0.342263 0.0337396 0.0838762 
0.382842 -0.127031 0.0389413 
0.365792 -0.208413 0.0331944 
0.343913 -0.019159 0.0964486 
0.329914 0.0274696 0.039558 
0.313421 0.0183916 0.124664 
0.314255 -0.0397305 0.020769 
0.275856 -0.0039795 0.0920627 
0.239821 0.164577 0.0628233 
0.200853 -0.152977 0.111118 
0.157389 -0.20002 0.196456 
0.084093 -0.182364 0.201682 
0.183201 0.31498 0.0665909 
0.232365 0.19016 0.199292 
0.305387 0.184291 0.172026 
0.235189 0.140372 0.155686 
0.290725 0.265832 0.168336 
0.309567 0.196818 0.10698 
0.188233 0.234653 0.198667 
0.255058 0.260286 0.20892 
0.362159 -0.0832023 0.0989692 
0.363424 -0.205996 0.0967943 
0.340735 -0.197461 0.0747802 
0.350736 -0.236259 0.0566251 
0.395739 -0.175754 0.0710272 
0.403887 -0.275072 0.0570573 
0.372114 -0.304451 0.0947428 
0.373857 -0.367502 0.141814 
0.394034 -0.317591 0.111714 
0.373666 -0.340106 0.0778197 
0.38417 -0.331851 0.0485638 
0.418186 -0.293805 0.0759224 
0.426283 -0.394522 0.100053 
0.418748 -0.437543 0.097658 
0.418019 -0.396397 0.0545128 
0.402909 -0.410148 0.0610637 
0.39235 -0.383928 0.119469 
0.39404 -0.359638 0.135538 
0.320705 0.121519 0.111238 
0.101162 0.0969977 0.014058 
0.0918822 -0.0177096 0.0367546 
0.142101 0.00401834 0.0504505 
0.176196 -0.00944067 0.0843025 
0.0485008 0.212898 0.0268338 
0.138588 0.322261 0.0691275 
0.301235 0.112848 0.0630026 
0.127431 -0.0750528 0.0390906 
0.235085 0.140317 0.0932095 
0.169599 0.202437 0.00639979 
0.120601 0.204776 0.0207302 
0.280587 0.205103 0.194916 
0.190095 0.180456 0.214511 
0.116779 0.377173 0.255919 
0.113534 0.298061 0.191589 
0.0613496 0.262855 0.205258 
0.0614899 0.192176 0.222457 
0.211124 -0.302085 0.067038 
0.165922 -0.266632 0.0183311 
0.199941 -0.202291 0.0845971 
0.168795 -0.158261 0.0457274 
0.124778 -0.130323 0.0211588 
0.13119 -0.284368 -0.00118434 
0.166075 -0.580702 0.113647 
0.214382 -0.252637 0.0964501 
0.136219 -0.199352 -0.00225864 
0.0449046 -0.291635 0.218079 
0.1973 -0.164779 0.156269 
0.164034 -0.142565 0.191409 
0.0803901 -0.176582 -0.00751421 
0.0551709 0.298245 0.192873 
0.14918 -1.05594 -0.0323815 
0.196508 -1.00028 -0.0154626 
0.198098 -1.02046 0.00869184 
0.142304 -1.0231 0.00467178 
0.171585 -1.00747 -0.0348937 
0.147817 -1.05834 0.0411248 
0.202176 -1.14962 0.184344 
0.174734 -1.14308 0.204626 
0.158371 -1.13245 0.174946 
0.175305 -1.1518 0.176079 
0.22234 -1.14196 0.155926 
0.227836 -1.14727 0.0754667 
0.21719 -1.1551 0.15818 
0.177091 -1.02833 0.041366 
0.196507 -1.08685 -0.0059505 
0.228255 -1.12788 0.107669 
0.14829 -1.11912 0.095079 
0.157401 -1.14673 0.138203 
0.180839 -1.1215 0.146725 
0.214852 -1.10818 0.0747118 
0.236253 -1.13898 0.0818808 
0.211347 -1.11806 0.0326697 
0.190085 -1.13166 -0.030526 
0.160083 -1.10096 -0.0506422 
0.161043 -1.09768 0.100899 
0.183803 -1.06724 0.059824 
0.134964 -1.14193 -0.033567 
0.136658 -1.10797 0.0219012 
0.149428 -1.12815 0.0571883 
0.174734 -1.14331 0.0573407 
0.174028 -1.14477 -0.03986 
0.195596 -1.06701 0.0326178 
0.200103 -0.705897 0.0675859 
0.153582 -0.0305756 0.194668 
0.0868774 -0.0308526 0.234136 
0.0490768 -0.0764646 0.0376666 
0.0619917 0.136803 0.0207924 
0.0336372 -0.225762 0.207095 
0.0529684 0.36041 0.280762 
0.0219185 0.394412 0.211566 
0.0150795 0.416684 0.184851 
0.0376627 0.603311 0.223673 
0.000374193 0.488309 0.177114 
0.0352341 0.489821 0.302834 
0.0103855 0.457203 0.264696 
0.0395305 0.583879 0.269562 
0.0688494 0.594523 0.148203 
0.0431491 0.543385 0.301609 
-0.000603059 0.541784 0.225578 
0.0269737 0.590514 0.167101 
0.0116481 0.467601 0.163502 
0.0438828 0.540564 0.125011 
0.0771105 0.498459 0.11368 
0.06133 0.451354 0.130632 
-0.0567169 0.00196824 0.17354 
-0.0864243 -0.0165025 0.101536 
-0.0888054 -0.0224033 0.142763 
-0.0883752 -0.0785507 0.179575 
-0.105901 0.196896 0.193811 
-0.0149231 0.306519 0.161434 
0.0167841 0.320036 0.179033 
-0.116534 0.192481 0.0663273 
-0.0225967 0.269786 0.0228812 
-6.18682e-05 0.0727471 0.0178192 
-0.111533 0.138059 0.0671092 
-0.0396122 0.326506 0.0642762 
-0.121718 -0.225985 0.105099 
0.0473267 0.334759 0.0827478 
-0.110163 -0.103479 0.0989693 
-0.0152318 -0.328906 0.0182357 
-0.00318916 -0.165773 -0.00446377 
-0.123356 -0.424929 0.094745 
-0.071671 -0.354675 0.0175624 
0.00523627 -0.0824304 0.229606 
-0.112925 -0.187985 0.148055 
0.0343058 -0.325969 0.0333367 
-0.114997 -0.434978 0.125881 
-0.0625993 -0.381706 0.175123 
-0.0901783 -0.440529 0.152912 
-0.0210909 -0.280512 -0.0112601 
-0.0339897 -0.070216 0.0382234 
0.00475631 -0.355196 0.0277778 
-0.12091 -0.3462 0.0739795 
-0.0513247 -0.479202 0.148491 
-0.0603075 -0.249284 0.183154 
0.0238569 -0.364128 0.0447263 
-0.105341 -0.366532 0.0417899 
0.0234879 -0.349299 0.14376 
0.0225255 -0.472296 0.0754181 
0.0131043 -0.550255 0.0526578 
-0.0980021 -0.527475 0.104422 
0.0261684 -0.436861 0.047003 
-0.0992848 -0.503865 0.0321721 
-0.0963185 -0.578899 0.0205926 
-0.0698862 -0.471916 -0.00237841 
0.00668852 -0.625111 -0.005178 
-0.102644 -0.623498 0.014773 
-0.0261479 -0.648298 0.085141 
0.00358049 -0.636849 0.0253291 
-0.0991438 -0.571435 0.0630343 
0.00200565 -0.554041 0.00764652 
-0.0457536 -0.648212 0.0946613 
-0.0763821 -0.610764 0.0822603 
-0.0731531 -0.661033 0.0794373 
-0.0400068 -0.689192 0.0651984 
-0.0722859 -0.684865 -0.0398553 
-0.0790385 -0.704408 0.0558952 
-0.0963898 -0.672454 -0.0120349 
-0.0957949 -0.680846 0.0299852 
-0.0386595 -0.615338 -0.0224248 
0.00298361 -0.807954 -0.00780102 
-0.0149378 -0.68071 -0.0183289 
-0.0252406 -0.794511 -0.0623362 
-0.108067 -0.7621 -0.0117877 
-0.0873344 -0.804518 0.0393459 
-0.106661 -0.781103 0.0161111 
-0.0592479 -0.820015 0.0438375 
-0.00505011 -0.891938 -0.013114 
-0.022685 -0.886296 -0.0496684 
-0.0795504 -0.884779 -0.0478672 
-0.0696041 -0.945945 0.0150211 
-0.090008 -0.90412 0.000767553 
-0.0501168 -0.947208 0.0198582 
-0.0317486 -1.00105 -0.0558757 
-0.093972 -0.88235 -0.0235214 
-0.0167087 -0.475599 0.135041 
-0.00658508 -0.71719 0.00458291 
-0.0185075 -0.902436 0.0108373 
-0.0618102 -0.588125 -0.0159853 
-0.00641853 -0.58615 0.0838166 
-0.0553036 -0.730802 0.0550482 
-0.0298618 -0.574482 0.105576 
-0.0483242 0.0869257 0.184095 
0.0253372 0.080424 0.233592 
-0.00981227 -0.261725 0.20023 
0.0348498 -0.327335 0.173233 
0.023756 0.151242 0.0104935 
-0.114998 0.27775 0.198979 
-0.0625644 0.333025 0.133969 
-0.0998054 0.312893 0.104956 
0.0134517 0.138542 0.242449 
-0.159005 0.096492 0.0463852 
-0.107251 -0.297839 0.0441505 
-0.0684367 -0.0142704 0.0732592 
-0.0937369 0.0905623 0.0696557 
-0.00180053 -0.294058 0.169523 
-0.0259399 -0.275001 0.181375 
0.0127046 0.360362 0.152504 
-0.101568 0.142239 0.0991696 
-0.0212061 0.276311 0.189393 
0.0473823 0.387717 0.130326 
-0.121071 -0.267546 0.127518 
-0.137069 0.176132 0.1764 
0.043232 -0.346431 0.0957394 
0.0347429 -0.330808 0.0573734 
-0.0294893 -0.738698 0.0383125 
-0.0162524 -0.81918 0.0214125 
-0.223768 0.060838 0.0677611 
-0.115339 0.0925584 0.0812806 
-0.162898 0.0280297 0.114817 
-0.0947106 0.16039 0.143095 
-0.0985625 0.160846 0.126201 
-0.171801 0.130532 0.144645 
-0.111219 0.11397 0.117772 
0.0302992 -0.329682 0.136086 
-0.00993795 -0.484003 -0.000628564 
-0.0391087 -0.501883 -0.0138554 
-0.0317485 -0.406196 0.00632716 
-0.0628496 -0.565298 0.109834 
-0.0521477 -0.777178 -0.0678593 
-0.0923436 -0.75681 -0.0440091 
-0.0453625 -0.872812 -0.0591398 
-0.0327583 -0.358337 0.174671 
-0.110091 0.162935 0.158416 
-0.0945706 -0.229477 0.171803 
-0.0034771 -0.811126 -0.0413752 
-0.0994667 0.190253 0.131762 
-0.246618 -0.109559 0.100709 
-0.281646 -0.156361 0.0976264 
-0.330158 -0.202476 0.0747053 
-0.302087 -0.105073 0.0575892 
-0.20035 -0.0854157 0.0655398 
-0.267197 -0.0113279 0.0557247 
-0.16352 0.0188523 0.052199 
-0.175954 -0.017404 0.0837323 
-0.239258 0.00784813 0.0926915 
-0.236997 0.0355623 0.0784902 
-0.182896 -0.0458153 0.0529497 
-0.301822 -0.186388 0.0359778 
-0.242393 -0.131218 0.0281234 
-0.236445 -0.0355816 0.0154529 
-0.187447 0.0467505 0.131968 
-0.267677 -0.196605 0.0512363 
-0.197131 -0.0160746 0.0276498 
-0.199905 -0.0324515 0.0910716 
-0.0511967 -0.134938 0.0205486 
-0.047254 -0.188981 0.197502 
-0.0224253 -0.202723 0.19246 
-0.0489852 0.293875 0.168606 
-0.146673 0.291191 0.152193 
-0.179119 0.228872 0.140096 
-0.0700619 0.165125 0.0195555 
-0.179164 0.196918 0.15676 
-0.150448 0.22666 0.0738675 
-0.151472 0.226068 0.18974 
-0.273577 -0.0399005 0.0890177 
-0.298853 -0.143556 0.0949562 
-0.257193 -0.170256 0.0802862 
-0.34279 -0.348932 0.104308 
-0.347452 -0.262645 0.100193 
-0.307717 -0.264251 0.0854799 
-0.311848 -0.263286 0.0547871 
-0.368425 -0.355044 0.107343 
-0.350891 -0.251634 0.0726432 
-0.320006 -0.256561 0.106734 
-0.360615 -0.380279 0.110708 
-0.354682 -0.39295 0.090182 
-0.364914 -0.356338 0.0776881 
-0.34165 -0.375888 0.0572838 
-0.312479 -0.29305 0.0604874 
-0.345066 -0.283949 0.0502539 
-0.351708 -0.355327 0.0531457 
-0.316264 -0.323957 0.134186 
-0.345497 -0.316622 0.131039 
0.0164191 0.239048 0.199665 
-0.149893 0.117782 0.152203 
-0.194145 0.127975 0.117696 
-0.196036 0.142792 0.0916288 
0.00440851 -0.0511008 0.230426 
-0.0495723 -0.00778906 0.0564853 
-0.0817439 0.0544631 0.140568 
-0.0461293 0.130705 0.0119663 
-0.00497887 0.055339 0.218274 
-0.0753213 0.224344 0.20195 
-0.0237576 0.213456 0.00171616 
-0.0871296 0.116185 0.039434 
-0.122249 0.254969 0.0665863 
-0.192183 0.116328 0.0620543 
-0.148041 0.284943 0.177982 
0.0169107 -0.0205925 0.0430845 
-0.0584996 0.127607 0.209248 
-0.0998369 -0.224039 0.0624419 
-0.105279 -0.165699 0.0740151 
-0.0698935 -0.28032 0.0130591 
-0.0558519 -0.178709 0.0100124 
0.0436148 -0.124772 0.0199582 
-0.0883205 -0.111969 0.0522423 
-0.0651697 -0.25386 0.00487511 
-0.0200854 -0.212193 -0.0158733 
-0.112773 -0.312272 0.149137 
-0.0671113 -0.314739 0.180949 
-0.00826416 -0.173458 0.201916 
0.047439 -0.173435 0.208543 
-0.0878581 -0.157155 0.179541 
-0.0189076 -0.994252 -0.00710307 
-0.0136776 -1.04872 -0.0514931 
-0.0594914 -1.01523 -0.0418974 
-0.0696778 -1.01835 -0.00843013 
-0.145174 -1.13449 0.0765857 
-0.0777986 -1.12792 0.132437 
-0.0544542 -1.12695 0.0908913 
-0.109588 -1.13865 0.142449 
-0.104192 -1.1243 0.104141 
-0.122258 -1.15259 0.132898 
-0.108939 -1.15163 0.153083 
-0.135886 -1.13665 0.109252 
-0.0303559 -1.00302 0.0099116 
-0.0567814 -1.03349 0.0165212 
-0.0673312 -1.14876 0.101026 
-0.12722 -1.15309 0.0646774 
-0.0679584 -1.10071 0.0822461 
-0.10952 -1.10927 0.0454418 
-0.0714063 -1.10274 -0.028649 
-0.0420651 -1.1235 -0.0759439 
-0.0210962 -1.04554 -0.056344 
-0.0702466 -1.06177 0.0052932 
-0.0640602 -1.07137 0.0365846 
-0.0163745 -1.1111 0.00432106 
-0.0366264 -1.07389 0.0311375 
-0.126491 -1.13978 0.029939 
-0.0525595 -1.13961 -0.0556643 
-0.0131557 -1.12927 -0.0760906 
-0.000685857 -1.13832 -0.0566132 
-0.0106138 -1.05676 0.000460569 
-0.0463047 -1.13893 0.02916 
-0.0882239 -1.14492 0.0026473 
-0.0933817 -0.29927 0.170725 
3 197 3 1 
3 3 0 1 
3 4 2 0 
3 6 5 4 
3 20 197 7 
3 9 20 14 
3 5 17 2 
3 17 5 18 
3 18 5 6 
3 0 2 11 
3 2 4 5 
3 13 6 12 
3 12 6 4 
3 6 13 18 
3 19 7 32 
3 3 197 20 
3 12 10 13 
3 10 16 261 
3 10 12 9 
3 16 10 9 
3 20 4 3 
3 268 267 9 
3 9 14 268 
3 20 7 14 
3 2 17 262 
3 20 9 12 
3 16 9 267 
3 10 261 13 
3 13 261 18 
3 11 1 0 
3 14 7 19 
3 14 19 268 
3 163 134 107 
3 28 102 134 
3 23 120 21 
3 52 30 126 
3 39 26 248 
3 116 153 29 
3 199 24 107 
3 157 43 189 
3 153 192 106 
3 184 251 194 
3 208 203 154 
3 154 211 208 
3 208 211 108 
3 156 252 49 
3 155 50 211 
3 35 34 40 
3 112 48 127 
3 45 44 121 
3 37 47 101 
3 49 128 156 
3 249 39 248 
3 50 108 211 
3 100 23 24 
3 201 101 46 
3 58 111 54 
3 54 55 67 
3 57 47 56 
3 46 59 64 
3 64 60 46 
3 73 72 64 
3 64 72 95 
3 62 90 67 
3 60 64 95 
3 64 65 73 
3 68 69 247 
3 113 69 63 
3 62 131 90 
3 131 71 97 
3 71 70 97 
3 97 70 98 
3 70 72 98 
3 74 247 80 
3 131 92 90 
3 97 133 131 
3 78 79 87 
3 86 132 77 
3 77 132 133 
3 88 80 84 
3 84 80 75 
3 82 217 87 
3 82 88 217 
3 54 89 58 
3 54 67 96 
3 96 67 90 
3 94 112 130 
3 65 68 73 
3 247 113 81 
3 98 72 123 
3 97 98 122 
3 187 36 186 
3 350 41 210 
3 189 282 19 
3 33 38 34 
3 184 194 105 
3 42 213 209 
3 46 38 201 
3 30 36 187 
3 51 45 121 
3 109 41 350 
3 158 21 25 
3 196 158 163 
3 196 163 107 
3 102 198 134 
3 198 107 134 
3 282 189 188 
3 102 8 198 
3 148 117 150 
3 117 148 145 
3 101 108 37 
3 100 348 249 
3 49 252 210 
3 119 117 159 
3 45 51 129 
3 112 58 53 
3 96 53 89 
3 96 89 54 
3 91 113 90 
3 83 114 93 
3 110 145 149 
3 118 149 151 
3 152 22 115 
3 118 143 115 
3 153 31 193 
3 162 159 183 
3 183 159 117 
3 51 55 111 
3 66 121 44 
3 60 66 44 
3 61 121 66 
3 99 96 63 
3 63 96 90 
3 62 70 71 
3 59 57 65 
3 65 57 68 
3 64 59 65 
3 95 66 60 
3 70 62 66 
3 66 62 61 
3 91 114 81 
3 98 123 122 
3 122 87 124 
3 88 82 80 
3 129 290 40 
3 128 49 130 
3 126 30 187 
3 186 185 31 
3 125 127 56 
3 119 160 22 
3 50 155 128 
3 49 41 130 
3 55 61 67 
3 61 62 67 
3 71 131 62 
3 131 133 76 
3 111 129 51 
3 135 192 153 
3 34 44 45 
3 112 94 58 
3 190 110 149 
3 25 135 116 
3 139 144 152 
3 169 140 136 
3 140 165 136 
3 141 138 139 
3 138 142 146 
3 151 142 138 
3 145 148 140 
3 152 144 22 
3 150 22 144 
3 147 146 170 
3 142 151 149 
3 142 149 140 
3 152 115 143 
3 137 148 144 
3 150 144 148 
3 151 141 143 
3 147 168 138 
3 141 151 138 
3 149 145 140 
3 115 22 160 
3 32 7 8 
3 8 102 32 
3 290 35 40 
3 205 460 191 
3 191 460 250 
3 154 52 211 
3 155 211 212 
3 15 8 7 
3 15 7 197 
3 157 32 104 
3 104 32 28 
3 162 161 159 
3 193 105 194 
3 193 29 153 
3 158 119 195 
3 103 161 28 
3 164 161 103 
3 116 29 115 
3 25 116 160 
3 119 159 195 
3 162 110 190 
3 158 195 164 
3 158 25 119 
3 163 158 164 
3 160 119 25 
3 115 29 118 
3 143 118 151 
3 167 137 139 
3 167 168 171 
3 176 170 169 
3 136 176 169 
3 173 171 172 
3 175 179 180 
3 171 174 172 
3 175 174 171 
3 181 178 177 
3 176 177 179 
3 178 179 177 
3 176 173 182 
3 173 176 136 
3 175 171 168 
3 171 173 166 
3 178 180 179 
3 182 173 172 
3 170 175 147 
3 176 182 177 
3 174 180 181 
3 147 175 168 
3 181 182 172 
3 180 178 181 
3 174 175 180 
3 177 182 181 
3 179 175 170 
3 170 176 179 
3 174 181 172 
3 22 150 119 
3 150 117 119 
3 145 183 117 
3 190 149 118 
3 191 185 186 
3 106 120 126 
3 187 186 31 
3 187 106 126 
3 138 146 147 
3 140 146 142 
3 137 165 148 
3 139 137 144 
3 137 167 166 
3 167 139 168 
3 140 169 146 
3 139 138 168 
3 137 166 165 
3 166 136 165 
3 170 146 169 
3 136 166 173 
3 171 166 167 
3 102 28 32 
3 187 31 106 
3 104 161 162 
3 110 162 183 
3 250 185 191 
3 52 154 30 
3 36 30 154 
3 110 183 145 
3 192 135 120 
3 192 120 106 
3 153 106 31 
3 43 157 27 
3 43 194 189 
3 29 190 118 
3 29 162 190 
3 27 29 193 
3 193 194 43 
3 161 195 159 
3 161 164 195 
3 19 32 157 
3 157 189 19 
3 152 143 141 
3 140 148 165 
3 141 139 152 
3 27 193 43 
3 185 454 184 
3 184 454 251 
3 194 251 188 
3 23 21 196 
3 115 160 116 
3 1 253 197 
3 198 8 15 
3 24 200 100 
3 202 201 38 
3 203 204 154 
3 33 206 202 
3 205 213 460 
3 42 206 35 
3 35 206 34 
3 213 205 209 
3 53 48 112 
3 96 99 53 
3 57 48 207 
3 38 46 60 
3 101 47 59 
3 89 53 58 
3 55 51 61 
3 46 101 59 
3 51 121 61 
3 75 81 83 
3 76 114 92 
3 92 114 91 
3 81 114 83 
3 78 87 123 
3 247 75 80 
3 92 131 76 
3 97 77 133 
3 79 78 73 
3 73 78 72 
3 91 90 92 
3 81 113 91 
3 247 81 75 
3 73 74 79 
3 79 74 80 
3 97 122 77 
3 83 84 75 
3 82 87 79 
3 93 114 85 
3 85 114 76 
3 124 86 77 
3 77 122 124 
3 82 79 80 
3 50 125 108 
3 128 130 127 
3 130 41 94 
3 203 208 204 
3 209 204 202 
3 42 209 206 
3 41 49 210 
3 129 40 45 
3 45 40 34 
3 212 39 156 
3 191 186 36 
3 36 154 204 
3 156 155 212 
3 156 467 252 
3 15 197 253 
3 262 11 2 
3 214 107 198 
3 199 107 214 
3 86 215 132 
3 219 124 216 
3 228 88 84 
3 220 93 218 
3 216 229 219 
3 216 217 229 
3 217 88 246 
3 221 227 225 
3 226 225 227 
3 224 223 232 
3 235 230 226 
3 226 230 225 
3 223 222 233 
3 222 223 224 
3 221 224 227 
3 225 233 221 
3 233 224 221 
3 232 223 231 
3 233 222 224 
3 93 220 83 
3 85 215 218 
3 87 217 216 
3 85 218 93 
3 124 219 86 
3 86 219 215 
3 132 215 85 
3 220 228 83 
3 83 228 84 
3 238 219 229 
3 240 228 220 
3 88 228 246 
3 239 223 233 
3 235 234 230 
3 239 231 223 
3 234 233 230 
3 235 236 234 
3 236 237 229 
3 215 238 241 
3 242 215 241 
3 233 234 240 
3 240 239 233 
3 242 243 231 
3 243 232 231 
3 239 220 231 
3 231 220 242 
3 236 235 226 
3 236 226 237 
3 245 237 226 
3 241 238 245 
3 242 241 243 
3 220 239 240 
3 218 242 220 
3 242 218 215 
3 244 232 243 
3 244 227 232 
3 226 227 244 
3 226 244 241 
3 241 245 226 
3 241 244 243 
3 232 227 224 
3 233 225 230 
3 238 215 219 
3 236 246 234 
3 246 240 234 
3 246 236 229 
3 217 246 229 
3 246 228 240 
3 135 153 116 
3 247 69 113 
3 39 212 26 
3 156 128 155 
3 63 90 113 
3 63 69 99 
3 99 69 207 
3 248 23 249 
3 99 207 53 
3 53 207 48 
3 26 52 126 
3 56 127 48 
3 56 47 37 
3 56 48 57 
3 247 74 68 
3 68 74 73 
3 68 207 69 
3 212 52 26 
3 57 207 68 
3 125 128 127 
3 56 37 125 
3 212 211 52 
3 57 59 47 
3 50 128 125 
3 26 126 248 
3 248 126 23 
3 23 126 120 
3 37 108 125 
3 204 208 202 
3 202 206 209 
3 111 109 129 
3 108 101 208 
3 208 101 201 
3 127 130 112 
3 58 109 111 
3 202 208 201 
3 33 202 38 
3 34 38 44 
3 60 44 38 
3 72 70 95 
3 216 124 87 
3 95 70 66 
3 123 72 78 
3 104 162 27 
3 55 54 111 
3 31 185 184 
3 132 76 133 
3 31 184 105 
3 105 193 31 
3 188 189 194 
3 33 34 206 
3 209 205 204 
3 87 122 123 
3 132 85 76 
3 109 94 41 
3 191 36 205 
3 204 205 36 
3 237 238 229 
3 237 245 238 
3 109 58 94 
3 196 107 24 
3 28 134 103 
3 23 100 249 
3 23 196 24 
3 156 39 467 
3 0 3 4 
3 12 4 20 
3 24 199 200 
3 103 134 164 
3 157 104 27 
3 21 135 25 
3 164 134 163 
3 135 21 120 
3 104 28 161 
3 27 162 29 
3 21 158 196 
3 454 185 250 
3 258 262 263 
3 253 259 254 
3 262 260 263 
3 264 263 256 
3 266 264 261 
3 268 265 267 
3 11 262 258 
3 256 263 260 
3 255 268 365 
3 362 255 365 
3 264 257 263 
3 261 16 266 
3 266 257 264 
3 265 266 267 
3 259 263 257 
3 1 259 253 
3 15 253 254 
3 254 259 255 
3 255 259 257 
3 256 260 17 
3 264 256 18 
3 268 255 265 
3 260 262 17 
3 266 265 257 
3 261 264 18 
3 362 275 255 
3 255 275 254 
3 19 282 365 
3 258 263 259 
3 16 267 266 
3 365 268 19 
3 1 11 259 
3 274 353 413 
3 445 269 447 
3 283 271 270 
3 417 419 453 
3 269 271 272 
3 269 272 288 
3 364 448 439 
3 276 363 391 
3 391 363 375 
3 280 277 451 
3 373 376 378 
3 280 353 365 
3 468 289 389 
3 284 35 290 
3 286 291 464 
3 461 358 295 
3 188 277 282 
3 382 284 296 
3 292 293 298 
3 349 299 361 
3 443 348 447 
3 439 448 200 
3 289 281 366 
3 306 300 368 
3 271 283 272 
3 293 383 298 
3 291 286 305 
3 300 306 380 
3 301 309 307 
3 307 309 308 
3 306 315 380 
3 322 343 320 
3 343 322 311 
3 323 317 311 
3 313 310 304 
3 308 314 307 
3 343 308 309 
3 316 383 317 
3 311 308 343 
3 343 381 324 
3 315 310 324 
3 316 319 312 
3 320 343 324 
3 323 311 322 
3 323 321 318 
3 313 341 310 
3 330 329 323 
3 323 329 321 
3 337 331 329 
3 327 326 390 
3 334 339 385 
3 385 339 328 
3 345 329 331 
3 390 333 327 
3 329 336 335 
3 470 332 469 
3 471 339 334 
3 340 303 302 
3 304 303 344 
3 344 303 340 
3 344 313 304 
3 332 342 469 
3 326 324 310 
3 370 345 371 
3 329 345 321 
3 320 324 384 
3 344 340 346 
3 297 286 366 
3 458 284 287 
3 353 453 352 
3 285 213 463 
3 287 301 458 
3 458 301 357 
3 461 270 358 
3 270 359 358 
3 361 360 350 
3 350 379 109 
3 274 413 364 
3 274 275 362 
3 400 406 441 
3 441 406 377 
3 401 400 441 
3 275 214 254 
3 366 281 297 
3 308 311 317 
3 214 15 254 
3 296 369 300 
3 340 302 387 
3 344 312 313 
3 313 319 370 
3 469 342 481 
3 273 388 375 
3 375 388 376 
3 388 374 378 
3 273 375 455 
3 375 347 455 
3 439 199 364 
3 274 214 275 
3 356 276 279 
3 281 289 457 
3 456 281 457 
3 349 412 299 
3 296 380 382 
3 382 380 381 
3 382 381 309 
3 381 380 315 
3 312 344 346 
3 305 314 317 
3 309 381 343 
3 315 324 381 
3 371 345 331 
3 330 328 339 
3 334 384 386 
3 481 342 337 
3 386 333 338 
3 129 369 290 
3 465 361 299 
3 314 308 317 
3 300 380 296 
3 271 445 270 
3 465 292 387 
3 293 501 464 
3 301 297 357 
3 415 442 441 
3 440 367 377 
3 415 441 417 
3 369 129 109 
3 310 315 304 
3 333 390 332 
3 300 369 368 
3 440 388 367 
3 391 375 376 
3 421 420 395 
3 396 407 404 
3 392 396 409 
3 420 400 401 
3 401 397 420 
3 404 405 408 
3 401 372 397 
3 372 405 397 
3 405 356 408 
3 405 372 452 
3 405 403 395 
3 399 396 402 
3 378 374 399 
3 399 373 378 
3 409 406 400 
3 404 408 402 
3 409 374 406 
3 363 445 375 
3 373 399 398 
3 362 365 353 
3 280 365 282 
3 257 265 255 
3 468 389 411 
3 411 389 412 
3 280 354 353 
3 449 351 446 
3 353 414 453 
3 417 453 415 
3 414 418 415 
3 377 419 417 
3 279 276 376 
3 376 276 391 
3 377 367 419 
3 415 418 452 
3 354 451 418 
3 448 352 273 
3 352 419 273 
3 388 273 367 
3 448 364 413 
3 397 405 395 
3 420 421 392 
3 424 421 394 
3 407 426 403 
3 403 435 428 
3 422 429 425 
3 404 407 403 
3 435 436 432 
3 437 425 429 
3 438 429 424 
3 434 423 431 
3 426 425 434 
3 434 435 426 
3 431 430 432 
3 427 428 432 
3 438 424 428 
3 423 437 438 
3 403 426 435 
3 431 433 434 
3 431 423 430 
3 427 430 438 
3 432 430 427 
3 437 434 425 
3 427 438 428 
3 431 432 433 
3 432 436 433 
3 434 433 436 
3 434 436 435 
3 429 438 437 
3 428 435 432 
3 423 434 437 
3 423 438 430 
3 11 258 259 
3 440 377 406 
3 442 452 372 
3 279 373 398 
3 440 406 374 
3 442 372 441 
3 441 372 401 
3 356 398 408 
3 452 356 405 
3 376 373 279 
3 417 441 377 
3 376 388 378 
3 374 388 440 
3 398 356 279 
3 450 444 358 
3 444 446 278 
3 278 446 351 
3 358 359 450 
3 400 392 409 
3 402 396 404 
3 395 420 397 
3 400 420 392 
3 405 404 403 
3 392 422 396 
3 396 422 407 
3 393 392 421 
3 392 393 422 
3 425 407 422 
3 395 403 394 
3 395 394 421 
3 429 422 393 
3 421 424 429 
3 421 429 393 
3 426 407 425 
3 424 394 428 
3 428 394 403 
3 362 353 274 
3 199 214 364 
3 364 214 274 
3 270 445 363 
3 270 363 359 
3 446 450 416 
3 450 446 444 
3 295 358 444 
3 295 454 250 
3 289 272 283 
3 288 468 466 
3 410 461 295 
3 283 270 461 
3 415 452 442 
3 359 363 450 
3 450 363 276 
3 450 276 416 
3 416 276 451 
3 449 446 416 
3 277 188 449 
3 449 188 351 
3 367 273 419 
3 415 453 414 
3 419 352 453 
3 409 399 374 
3 398 402 408 
3 402 398 399 
3 396 399 409 
3 277 449 451 
3 198 15 214 
3 457 410 459 
3 459 456 457 
3 456 462 458 
3 462 294 458 
3 284 294 35 
3 463 294 462 
3 410 285 459 
3 459 285 463 
3 298 346 340 
3 287 309 301 
3 297 307 286 
3 314 286 307 
3 302 303 368 
3 297 301 307 
3 370 371 341 
3 341 371 325 
3 371 331 342 
3 324 326 327 
3 322 385 328 
3 370 341 313 
3 322 328 323 
3 323 328 330 
3 327 384 324 
3 335 337 329 
3 336 329 330 
3 325 371 332 
3 332 371 342 
3 331 337 342 
3 386 327 333 
3 386 384 327 
3 330 339 336 
3 361 465 360 
3 360 465 387 
3 302 379 360 
3 389 366 464 
3 302 360 387 
3 462 456 459 
3 463 42 294 
3 349 361 210 
3 210 361 350 
3 284 290 296 
3 296 290 369 
3 285 250 460 
3 295 285 410 
3 295 250 285 
3 278 454 444 
3 460 213 285 
3 283 461 457 
3 457 461 410 
3 457 289 283 
3 466 468 411 
3 252 467 412 
3 412 467 466 
3 17 18 256 
3 336 472 335 
3 338 333 470 
3 489 471 338 
3 481 498 469 
3 470 469 498 
3 478 477 480 
3 483 475 479 
3 474 476 479 
3 478 479 476 
3 484 480 473 
3 474 479 475 
3 476 477 478 
3 478 480 484 
3 481 337 482 
3 339 471 472 
3 472 336 339 
3 337 335 482 
3 481 482 493 
3 493 482 491 
3 482 490 491 
3 490 482 472 
3 335 472 482 
3 476 474 485 
3 485 474 475 
3 476 485 477 
3 477 486 473 
3 473 486 494 
3 486 490 487 
3 486 487 494 
3 496 488 489 
3 497 496 470 
3 470 496 489 
3 490 486 491 
3 491 486 477 
3 477 485 491 
3 491 485 493 
3 475 493 485 
3 475 499 492 
3 475 483 499 
3 492 493 475 
3 487 495 494 
3 488 495 487 
3 493 492 498 
3 470 498 492 
3 483 484 499 
3 499 484 500 
3 500 484 494 
3 495 500 494 
3 497 499 500 
3 500 495 497 
3 495 496 497 
3 479 478 483 
3 483 478 484 
3 484 473 494 
3 473 480 477 
3 338 470 489 
3 493 498 481 
3 471 487 490 
3 471 490 472 
3 345 319 321 
3 321 319 318 
3 292 298 387 
3 387 298 340 
3 389 501 299 
3 319 313 312 
3 316 346 383 
3 412 389 299 
3 346 316 312 
3 299 501 465 
3 288 443 269 
3 501 293 465 
3 465 293 292 
3 443 447 269 
3 272 468 288 
3 298 383 346 
3 412 466 411 
3 291 293 464 
3 383 293 305 
3 305 293 291 
3 317 323 318 
3 319 316 318 
3 318 316 317 
3 305 317 383 
3 445 271 269 
3 286 464 366 
3 289 366 389 
3 272 289 468 
3 286 314 305 
3 464 501 389 
3 370 319 345 
3 368 109 379 
3 281 456 357 
3 357 456 458 
3 357 297 281 
3 369 109 368 
3 35 294 42 
3 282 277 280 
3 454 295 444 
3 284 382 287 
3 287 382 309 
3 334 338 471 
3 350 360 379 
3 385 322 320 
3 379 302 368 
3 303 304 306 
3 306 304 315 
3 341 326 310 
3 341 325 326 
3 326 325 390 
3 325 332 390 
3 470 333 332 
3 276 418 451 
3 354 418 414 
3 418 276 356 
3 418 356 452 
3 294 284 458 
3 368 303 306 
3 384 334 385 
3 385 320 384 
3 338 334 386 
3 459 463 462 
3 487 489 488 
3 470 492 497 
3 488 496 495 
3 497 492 499 
3 471 489 487 
3 355 455 348 
3 349 252 412 
3 448 413 352 
3 448 455 355 
3 463 213 42 
3 348 455 347 
3 348 347 447 
3 200 448 355 
3 352 413 353 
3 280 451 354 
3 347 445 447 
3 445 347 375 
3 451 449 416 
3 414 353 354 
3 455 448 273 
3 288 249 443 
3 288 466 39 
3 200 199 439 
3 278 251 454 
3 249 288 39 
3 278 351 251 
3 355 348 200 
3 200 348 100 
3 39 466 467 
3 351 188 251 
3 443 249 348 
3 210 252 349 
